<svg xmlns="http://www.w3.org/2000/svg" xmlns:xlink="http://www.w3.org/1999/xlink" width="123" height="51" viewBox="0 0 123 51">
  <defs>
    <filter id="Ellipse_1" x="3.997" y="-2.617" width="60.91" height="59.957" filterUnits="userSpaceOnUse">
      <feOffset dx="3" dy="3" input="SourceAlpha"/>
      <feGaussianBlur stdDeviation="3" result="blur"/>
      <feFlood flood-opacity="0.161"/>
      <feComposite operator="in" in2="blur"/>
      <feComposite in="SourceGraphic"/>
    </filter>
    <clipPath id="clip-sapien-summit-logo_1">
      <rect width="123" height="51"/>
    </clipPath>
  </defs>
  <g id="sapien-summit-logo_1" data-name="sapien-summit-logo – 1" clip-path="url(#clip-sapien-summit-logo_1)">
    <g id="logo-ssummit" transform="translate(3.003 0)">
      <path id="Path_1" data-name="Path 1" d="M22.272,0h0l.721.613L24.9,2.39S12.776,2.279,6.122,6.557c-3.658,2.351,10.51,7.934,8.448,13.857S2.015,29.165,0,31.695" transform="translate(16.443 0.976) rotate(14)" fill="#ec5242"/>
      <g transform="matrix(1, 0, 0, 1, -3, 0)" filter="url(#Ellipse_1)">
        <g id="Ellipse_1-2" data-name="Ellipse 1" transform="translate(10 3.38)" fill="none" stroke="#fff" stroke-width="1" stroke-dasharray="3 0">
          <ellipse cx="21.455" cy="20.978" rx="21.455" ry="20.978" stroke="none"/>
          <ellipse cx="21.455" cy="20.978" rx="20.955" ry="20.478" fill="none"/>
        </g>
      </g>
      <path id="Path_2" data-name="Path 2" d="M19.051,0C-2.466,28.226.095,24.716.095,24.716L34.385,10.974,13.811,15.108Z" transform="translate(54.199 25.447) rotate(132)" fill="#ec5242"/>
    </g>
    <g id="logo-text" transform="translate(2.003)">
      <text id="SapienAi" transform="translate(50 22)" fill="#fff" font-size="16" font-family="Lato-Regular, Lato"><tspan x="0" y="0">SapienAi</tspan></text>
      <text id="Summit_2023_" data-name="Summit 2023
" transform="translate(50 34)" fill="#fff" font-size="10" font-family="Lato-Bold, Lato" font-weight="700"><tspan x="0" y="0">Summit 2023</tspan><tspan x="0" y="12"></tspan></text>
      <circle id="Ellipse_2" data-name="Ellipse 2" cx="2" cy="2" r="2" transform="translate(75 9)" fill="#ec5242"/>
    </g>
  </g>
</svg>
